<svg width="720" height="220" viewBox="0 0 720 220" fill="none" xmlns="http://www.w3.org/2000/svg">
  <defs>
    <linearGradient id="buttonFill" x1="102" y1="24" x2="622" y2="196" gradientUnits="userSpaceOnUse">
      <stop stop-color="#FF8F9E"/>
      <stop offset="1" stop-color="#F06C82"/>
    </linearGradient>
  </defs>

  <rect x="18" y="20" width="684" height="168" rx="84" fill="url(#buttonFill)"/>
  <rect x="30" y="32" width="660" height="144" rx="72" stroke="#FFD0D6" stroke-width="4" opacity="0.75"/>
  <path d="M92 102H163" stroke="#FFF9FB" stroke-width="14" stroke-linecap="round"/>
  <path d="M127 67V137" stroke="#FFF9FB" stroke-width="14" stroke-linecap="round"/>

  <text x="197" y="128" fill="#FFF9FB" font-size="72" font-weight="700"
    font-family="'Microsoft YaHei','PingFang SC','Noto Sans SC',sans-serif">新建计划</text>

  <path d="M551 73L560 91L580 98L561 106L551 124L542 106L523 98L542 91L551 73Z" fill="#FFDDE4" opacity="0.85"/>
  <path d="M611 98L617 111L631 117L617 123L611 136L605 123L592 117L605 111L611 98Z" fill="#FFF1F4" opacity="0.92"/>
  <path d="M85 151C110 142 134 143 156 154" stroke="#FFE4EA" stroke-width="4" stroke-linecap="round" opacity="0.65"/>
</svg>
