<svg width="1024" height="1024" viewBox="0 0 1024 1024" fill="none" xmlns="http://www.w3.org/2000/svg">
  <defs>
    <linearGradient id="bg" x1="140" y1="120" x2="870" y2="910" gradientUnits="userSpaceOnUse">
      <stop stop-color="#FFF1F6"/>
      <stop offset="0.52" stop-color="#FFD6E3"/>
      <stop offset="1" stop-color="#FF9DBA"/>
    </linearGradient>
    <radialGradient id="bgGlow" cx="0" cy="0" r="1" gradientUnits="userSpaceOnUse" gradientTransform="translate(770 214) rotate(132.639) scale(428.687)">
      <stop stop-color="#FFFFFF" stop-opacity="0.58"/>
      <stop offset="1" stop-color="#FFFFFF" stop-opacity="0"/>
    </radialGradient>
    <linearGradient id="planet" x1="320" y1="286" x2="716" y2="744" gradientUnits="userSpaceOnUse">
      <stop stop-color="#FFFDFE"/>
      <stop offset="0.48" stop-color="#FFD9E5"/>
      <stop offset="1" stop-color="#FFB7CB"/>
    </linearGradient>
    <radialGradient id="planetShine" cx="0" cy="0" r="1" gradientUnits="userSpaceOnUse" gradientTransform="translate(430 406) rotate(47.29) scale(199.304 151.751)">
      <stop stop-color="#FFFFFF" stop-opacity="0.95"/>
      <stop offset="1" stop-color="#FFFFFF" stop-opacity="0"/>
    </radialGradient>
    <linearGradient id="ring" x1="188" y1="660" x2="822" y2="384" gradientUnits="userSpaceOnUse">
      <stop stop-color="#FF6F9F"/>
      <stop offset="0.55" stop-color="#FF8DB1"/>
      <stop offset="1" stop-color="#FFD5E0"/>
    </linearGradient>
    <linearGradient id="ringShadow" x1="274" y1="666" x2="763" y2="517" gradientUnits="userSpaceOnUse">
      <stop stop-color="#F85F92" stop-opacity="0.34"/>
      <stop offset="1" stop-color="#F85F92" stop-opacity="0"/>
    </linearGradient>
    <linearGradient id="heart" x1="734" y1="442" x2="866" y2="607" gradientUnits="userSpaceOnUse">
      <stop stop-color="#FFF8FB"/>
      <stop offset="1" stop-color="#FFD5E1"/>
    </linearGradient>
    <filter id="shadow" x="130" y="130" width="764" height="764" filterUnits="userSpaceOnUse" color-interpolation-filters="sRGB">
      <feFlood flood-opacity="0" result="BackgroundImageFix"/>
      <feColorMatrix in="SourceAlpha" type="matrix" values="0 0 0 0 0 0 0 0 0 0 0 0 0 0 0 0 0 0 127 0" result="hardAlpha"/>
      <feOffset dy="28"/>
      <feGaussianBlur stdDeviation="28"/>
      <feColorMatrix type="matrix" values="0 0 0 0 0.937255 0 0 0 0 0.431373 0 0 0 0 0.596078 0 0 0 0.18 0"/>
      <feBlend mode="normal" in2="BackgroundImageFix" result="effect1_dropShadow_1_1"/>
      <feBlend mode="normal" in="SourceGraphic" in2="effect1_dropShadow_1_1" result="shape"/>
    </filter>
  </defs>

  <g filter="url(#shadow)">
    <rect x="80" y="80" width="864" height="864" rx="228" fill="url(#bg)"/>
    <rect x="80" y="80" width="864" height="864" rx="228" fill="url(#bgGlow)"/>

    <circle cx="512" cy="530" r="214" fill="url(#planet)"/>
    <circle cx="512" cy="530" r="214" fill="url(#planetShine)"/>
    <circle cx="512" cy="530" r="214" stroke="#FFF7FA" stroke-opacity="0.46" stroke-width="10"/>

    <path d="M246 642C323 560 413 519 516 519C632 519 726 566 804 646" stroke="url(#ringShadow)" stroke-width="84" stroke-linecap="round"/>
    <path d="M228 626C307 548 403 510 516 510C642 510 743 558 826 642" stroke="url(#ring)" stroke-width="52" stroke-linecap="round"/>

    <path d="M742 480C772 433 839 430 866 478C891 524 853 575 807 619C762 575 723 524 748 478C775 430 842 433 872 480" fill="url(#heart)"/>
    <path d="M742 480C772 433 839 430 866 478C891 524 853 575 807 619C762 575 723 524 748 478C775 430 842 433 872 480" stroke="#FFFDFE" stroke-opacity="0.55" stroke-width="6"/>
    <circle cx="808" cy="484" r="13" fill="#FF8DB1"/>

    <circle cx="424" cy="412" r="66" fill="#FFFFFF" fill-opacity="0.34"/>
    <ellipse cx="374" cy="350" rx="22" ry="18" fill="#FFFDFE" fill-opacity="0.82"/>
    <circle cx="684" cy="316" r="11" fill="#FFFDFE" fill-opacity="0.78"/>
    <circle cx="732" cy="356" r="7" fill="#FFFDFE" fill-opacity="0.62"/>
  </g>
</svg>
