<svg width="1024" height="1024" viewBox="0 0 1024 1024" fill="none" xmlns="http://www.w3.org/2000/svg">
  <rect x="80" y="80" width="864" height="864" rx="220" fill="#F7A9C4"/>
  <circle cx="512" cy="520" r="220" fill="#FFF4F7" fill-opacity="0.55"/>
  <circle cx="434" cy="448" r="70" fill="#FFF4F7" fill-opacity="0.55"/>
  <circle cx="356" cy="338" r="16" fill="#FFF4F7" fill-opacity="0.9"/>
  <circle cx="690" cy="314" r="10" fill="#FFF4F7" fill-opacity="0.9"/>
  <circle cx="812" cy="638" r="28" fill="#FFC1D6" fill-opacity="0.8"/>
  <path d="M232 628C312 548 404 510 512 510C634 510 722 552 792 620" stroke="#F96E9E" stroke-width="54" stroke-linecap="round"/>
  <path d="M776 654C710 604 651 545 678 488C706 431 782 438 814 490C846 438 922 431 950 488C977 545 918 604 852 654L814 684L776 654Z" fill="#FFF5F7" transform="translate(-40 0) scale(0.92)"/>
  <circle cx="784" cy="490" r="15" fill="#F96E9E"/>
</svg>
