<svg width="24" height="24" viewBox="0 0 24 24" fill="none" xmlns="http://www.w3.org/2000/svg">
  <path d="M7 16.5C7 16.5 4 15.5 4 12C4 8.5 7 5.5 10 5.5C13 5.5 14 7.5 14 7.5C14 7.5 15 5.5 18 5.5C21 5.5 24 8.5 24 12C24 15.5 21 16.5 21 16.5" stroke="currentColor" stroke-width="1.5" stroke-linecap="round" stroke-linejoin="round"/>
  <path d="M12 15C12 18.5 9 21.5 6 21.5C3 21.5 0 18.5 0 15C0 11.5 3 8.5 6 8.5" stroke="currentColor" stroke-width="1.5" stroke-linecap="round" stroke-linejoin="round"/>
  <circle cx="12" cy="12" r="1.5" fill="currentColor"/>
</svg>
