<svg width="374" height="168" viewBox="0 0 374 168" fill="none" xmlns="http://www.w3.org/2000/svg">
  <defs>
    <radialGradient id="leftPlanet" cx="0" cy="0" r="1" gradientUnits="userSpaceOnUse" gradientTransform="translate(96 80) rotate(120) scale(66 66)">
      <stop offset="0" stop-color="#F9C0AF"/>
      <stop offset="0.6" stop-color="#EA9278"/>
      <stop offset="1" stop-color="#DD6F5C"/>
    </radialGradient>
    <radialGradient id="rightPlanet" cx="0" cy="0" r="1" gradientUnits="userSpaceOnUse" gradientTransform="translate(279 79) rotate(120) scale(58 58)">
      <stop offset="0" stop-color="#F3DEA8"/>
      <stop offset="0.62" stop-color="#D4AF67"/>
      <stop offset="1" stop-color="#BF8F36"/>
    </radialGradient>
    <radialGradient id="leftGlow" cx="0" cy="0" r="1" gradientUnits="userSpaceOnUse" gradientTransform="translate(96 98) scale(82 50)">
      <stop stop-color="#F7B8A3" stop-opacity="0.38"/>
      <stop offset="1" stop-color="#F7B8A3" stop-opacity="0"/>
    </radialGradient>
    <radialGradient id="rightGlow" cx="0" cy="0" r="1" gradientUnits="userSpaceOnUse" gradientTransform="translate(279 96) scale(72 44)">
      <stop stop-color="#E2C37B" stop-opacity="0.32"/>
      <stop offset="1" stop-color="#E2C37B" stop-opacity="0"/>
    </radialGradient>
    <filter id="softBlur" x="0" y="0" width="374" height="168" filterUnits="userSpaceOnUse" color-interpolation-filters="sRGB">
      <feGaussianBlur stdDeviation="1.6"/>
    </filter>
  </defs>

  <g opacity="0.55">
    <circle cx="28" cy="82" r="1.5" fill="#E8C4A0"/>
    <circle cx="45" cy="74" r="1.2" fill="#F0D0C4"/>
    <circle cx="61" cy="129" r="1.3" fill="#E8C4A0"/>
    <circle cx="160" cy="27" r="1.7" fill="#D7B37B"/>
    <circle cx="187" cy="143" r="1.1" fill="#E8C4A0"/>
    <circle cx="230" cy="36" r="1.4" fill="#E8C4A0"/>
    <circle cx="319" cy="28" r="1.6" fill="#D7B37B"/>
    <circle cx="334" cy="129" r="1.2" fill="#E8C4A0"/>
    <circle cx="345" cy="77" r="1.4" fill="#E8C4A0"/>
  </g>

  <path d="M136 98C152 88 165 83 187 83C209 83 222 88 238 98" stroke="#D8C3A9" stroke-width="2.2" stroke-linecap="round" stroke-dasharray="4 7" opacity="0.75"/>
  <path d="M187 33C190.5 38.5 194.5 42.5 199 45C193.5 46 189.5 49.5 187 54C184.5 49.5 180.5 46 175 45C179.5 42.5 183.5 38.5 187 33Z" fill="#E58D83" opacity="0.95"/>

  <ellipse cx="95" cy="97" rx="56" ry="17" stroke="#E3C6AF" stroke-width="1.6" opacity="0.72"/>
  <ellipse cx="279" cy="96" rx="45" ry="14" stroke="#E3C6AF" stroke-width="1.6" opacity="0.72"/>

  <ellipse cx="96" cy="109" rx="78" ry="34" fill="url(#leftGlow)"/>
  <ellipse cx="279" cy="106" rx="68" ry="30" fill="url(#rightGlow)"/>

  <circle cx="96" cy="96" r="38" fill="url(#leftPlanet)"/>
  <circle cx="279" cy="94" r="31" fill="url(#rightPlanet)"/>

  <circle cx="85" cy="72" r="8" fill="white" opacity="0.18" filter="url(#softBlur)"/>
  <circle cx="271" cy="76" r="6.5" fill="white" opacity="0.15" filter="url(#softBlur)"/>

  <path d="M40 51C42 46 43 42 43 37C46 42 48 46 51 49C47 50 44 53 42 58C41 54 39 52 36 51C38 50 39 49 40 51Z" fill="#E8C4A0" opacity="0.72"/>
  <path d="M337 54C339 49 340 45 340 40C343 45 345 49 348 52C344 53 341 56 339 61C338 57 336 55 333 54C335 53 336 52 337 54Z" fill="#E8C4A0" opacity="0.72"/>
</svg>
